<?xml version="1.0" standalone="no"?>
<!DOCTYPE svg PUBLIC "-//W3C//DTD SVG 20010904//EN"
 "http://www.w3.org/TR/2001/REC-SVG-20010904/DTD/svg10.dtd">
<svg version="1.0" xmlns="http://www.w3.org/2000/svg"
 width="626.000000pt" height="626.000000pt" viewBox="0 0 626.000000 626.000000"
 preserveAspectRatio="xMidYMid meet">
<metadata>
Created by potrace 1.11, written by Peter Selinger 2001-2013
</metadata>
<g transform="translate(0.000000,626.000000) scale(0.100000,-0.100000)"
fill="#000000" stroke="none">
<path d="M741 5756 c-18 -10 -20 -15 -10 -19 11 -4 10 -6 -2 -6 -9 -1 -21 -13
-26 -28 -6 -16 -18 -50 -28 -78 -10 -27 -19 -59 -20 -70 -1 -11 -8 -33 -14
-49 -7 -16 -10 -35 -7 -43 3 -7 1 -13 -4 -13 -6 0 -10 -11 -10 -25 0 -14 -4
-25 -8 -25 -5 0 -17 -44 -27 -97 -10 -54 -21 -102 -25 -108 -8 -10 -40 -241
-40 -280 0 -17 2 -17 10 -5 6 9 10 10 10 3 0 -7 -6 -16 -14 -20 -19 -11 -25
-72 -34 -353 l-7 -245 -34 -65 c-18 -36 -42 -74 -52 -86 -12 -13 -17 -28 -13
-40 4 -13 3 -15 -3 -7 -7 10 -16 3 -36 -25 -49 -67 -87 -127 -87 -138 0 -6 -9
-19 -20 -29 -10 -9 -26 -39 -35 -66 -9 -27 -21 -49 -27 -49 -6 0 -8 -3 -5 -7
4 -3 3 -11 -2 -17 -13 -15 -82 -206 -79 -220 0 -6 -4 -24 -11 -41 -29 -70 -61
-282 -75 -500 -4 -62 18 -436 30 -525 31 -220 88 -446 159 -638 267 -714 902
-1185 1771 -1311 249 -37 364 -41 1150 -41 609 0 804 3 930 15 442 42 755 124
1069 282 231 116 430 271 591 458 285 332 474 787 514 1241 16 182 38 527 34
539 -2 5 -8 64 -14 130 -12 145 -28 254 -41 278 -5 10 -7 22 -4 27 3 5 1 11
-5 15 -5 3 -10 17 -10 31 0 13 -4 24 -10 24 -5 0 -7 6 -4 13 3 8 -1 27 -7 43
-7 16 -13 34 -13 39 -1 6 -9 27 -19 49 -9 21 -17 43 -17 48 0 5 -4 7 -9 4 -5
-4 -7 2 -5 11 2 10 -1 28 -8 40 -7 12 -29 53 -49 90 -30 58 -104 177 -168 273
-10 14 -28 46 -40 73 -13 26 -27 45 -31 42 -5 -3 -12 0 -16 6 -4 8 -3 9 4 5
15 -9 15 -9 -2 72 -8 37 -17 136 -20 221 -3 85 -10 182 -15 215 -6 34 -15 111
-22 171 -6 61 -18 133 -25 160 -8 28 -17 75 -20 105 -3 30 -10 62 -14 71 -5 9
-7 19 -4 22 7 7 -52 249 -73 297 -38 89 -55 120 -64 115 -5 -4 -9 0 -9 8 0 29
-119 63 -134 38 -3 -5 -26 -12 -51 -15 -25 -4 -45 -10 -45 -14 0 -4 -13 -8
-30 -9 -16 -1 -48 -11 -72 -21 -24 -11 -64 -25 -90 -33 -27 -7 -48 -17 -48
-21 0 -4 -3 -7 -7 -6 -14 4 -83 -26 -83 -35 0 -4 -4 -6 -9 -2 -11 6 -61 -15
-61 -27 0 -4 -7 -8 -16 -8 -19 0 -147 -61 -152 -72 -2 -5 -7 -6 -12 -3 -12 7
-152 -70 -143 -79 4 -4 -1 -4 -11 0 -13 5 -17 4 -12 -4 4 -6 -1 -10 -11 -9
-18 1 -256 -127 -348 -188 -27 -18 -62 -39 -77 -46 -15 -6 -25 -17 -21 -23 3
-6 3 -8 -2 -4 -4 4 -22 0 -39 -10 -40 -22 -216 -21 -366 2 -223 34 -276 37
-564 33 -160 -2 -318 -7 -351 -9 -123 -11 -370 -44 -357 -49 6 -2 -25 -3 -70
-2 -46 1 -83 2 -83 3 0 1 -9 3 -19 5 -11 2 -31 12 -45 23 -31 23 -91 54 -91
48 0 -3 -12 6 -27 20 -17 16 -34 23 -47 19 -12 -3 -15 -2 -8 1 10 5 8 10 -7
21 -12 8 -26 11 -33 7 -7 -4 -8 -3 -4 4 8 14 -30 36 -46 26 -7 -5 -8 -3 -4 5
5 8 0 14 -13 18 -12 3 -21 10 -21 15 0 6 -8 7 -17 4 -10 -4 -14 -4 -10 1 4 4
-6 14 -22 23 -16 8 -55 30 -87 47 -31 18 -61 30 -67 26 -5 -3 -7 -2 -4 4 4 5
-12 16 -33 23 -22 7 -40 16 -40 20 0 12 -51 31 -63 24 -7 -4 -8 -3 -4 1 9 11
-109 68 -140 68 -12 0 -20 3 -18 7 6 9 -144 70 -170 70 -9 0 -14 4 -11 8 5 8
-8 12 -46 13 -10 0 -18 4 -18 10 0 5 -7 9 -16 9 -9 0 -35 9 -58 19 -52 24
-197 62 -256 66 -25 2 -56 -2 -69 -9z m-64 -208 c-3 -8 -6 -5 -6 6 -1 11 2 17
5 13 3 -3 4 -12 1 -19z m-70 -220 c-3 -8 -6 -5 -6 6 -1 11 2 17 5 13 3 -3 4
-12 1 -19z m3777 -2098 c277 -27 525 -107 666 -215 137 -105 234 -240 294
-407 55 -153 71 -264 71 -493 0 -175 -3 -212 -23 -295 -100 -408 -368 -709
-753 -845 -140 -49 -369 -104 -569 -134 -231 -36 -388 -43 -935 -43 -496 0
-570 2 -755 22 -778 83 -1160 269 -1385 675 -117 213 -180 521 -156 767 29
297 134 525 328 708 145 138 277 200 470 224 336 42 444 43 1598 16 443 -11
508 -9 820 20 122 11 209 11 329 0z"/>
<path d="M1893 2655 c-127 -64 -217 -179 -269 -350 -25 -80 -28 -105 -27 -220
0 -111 4 -143 27 -220 15 -49 43 -116 63 -150 48 -80 136 -165 209 -201 53
-26 69 -29 154 -29 85 0 101 3 150 29 87 46 180 146 227 246 97 204 96 449 -3
655 -53 112 -127 191 -225 241 -62 31 -77 34 -152 34 -76 0 -91 -3 -154 -35z"/>
<path d="M4080 2662 c-31 -15 -75 -42 -98 -61 -51 -40 -124 -139 -148 -201 -9
-25 -21 -49 -25 -55 -15 -20 -39 -179 -39 -259 0 -269 126 -497 318 -577 69
-28 84 -31 152 -27 149 10 278 107 358 270 55 111 73 197 73 339 0 266 -117
484 -306 570 -55 25 -77 29 -147 29 -69 -1 -92 -6 -138 -28z"/>
</g>
</svg>
